<svg width="222" height="245" viewBox="0 0 222 245" fill="none" xmlns="http://www.w3.org/2000/svg">
<g clip-path="url(#clip0_163_5661)">
<path opacity="0.1" d="M124.52 245C178.368 245 222.02 238.131 222.02 229.658C222.02 221.184 178.368 214.315 124.52 214.315C70.6719 214.315 27.0195 221.184 27.0195 229.658C27.0195 238.131 70.6719 245 124.52 245Z" fill="#61B4FF"/>
<path d="M7.54005 177.926L2.31239 175.825C2.31239 175.825 4.84105 189.311 22.7252 192.686C22.7252 192.686 21.2083 194.062 16.988 193.793C37.3275 208.696 65.8094 204.931 100.099 187.87C100.642 187.6 101.186 187.332 101.729 187.055L95.0447 172.513C74.1884 118.847 24.6753 170.264 5.01139 145.973C5.01139 145.973 4.85427 146.168 4.60757 146.547C2.90417 149.135 -3.05037 160.359 7.54152 177.927L7.54005 177.926Z" fill="#B3B8C4"/>
<path opacity="0.15" d="M65.4883 182.194C81.8174 178.52 80.7131 159.153 67.2959 151.076C83.6618 152.565 91.8924 170.83 91.8924 170.83L98.5092 182.194C98.5092 182.194 79.7351 190.432 65.4883 182.194Z" fill="#2C2C2F"/>
<path d="M6.76627 177.616L2.82056 176.03C2.6047 175.943 2.38003 176.139 2.4417 176.363C3.126 178.868 6.86466 189.389 22.0161 192.545C22.2804 192.601 22.3318 192.957 22.088 193.074C21.389 193.412 20.0704 193.845 17.9147 193.827C17.6401 193.824 17.5226 194.182 17.7488 194.339C37.981 208.562 66.0885 204.739 99.8334 188.001C99.9773 187.929 100.035 187.753 99.9567 187.611L99.6704 187.082C99.6601 187.062 99.6454 187.043 99.6307 187.027C98.3737 185.625 97.0727 184.309 95.7379 183.089C89.8964 177.735 83.3648 174.127 76.7979 172.65C67.4527 170.541 58.0532 172.755 50.5436 180.404C50.3659 180.586 50.0575 180.464 50.0575 180.209V176.183C50.0575 175.957 49.802 175.82 49.6155 175.946C41.9267 181.096 37.7784 188.239 28.1189 187.118C27.8987 187.093 27.7959 186.83 27.9354 186.658L31.2834 182.531C31.4347 182.345 31.2966 182.068 31.0558 182.072C21.6636 182.238 15.4551 180.725 13.0218 177.226C12.9014 177.054 13.0013 176.812 13.2083 176.781C15.5388 176.447 17.3303 175.367 18.0983 174.833C18.2818 174.705 18.2466 174.428 18.0395 174.341C8.10843 170.186 3.6517 156.572 4.99533 147.392C5.00414 147.333 4.99386 147.274 4.96596 147.222L4.8338 146.972C4.73101 146.779 4.45641 146.77 4.34187 146.958C2.41233 150.138 -2.42032 160.856 7.11283 177.205C7.24939 177.439 7.01591 177.713 6.76481 177.612L6.76627 177.616Z" fill="white"/>
<path d="M47.2499 204.476C35.2982 204.476 24.884 201.285 16.2172 194.951L15.3685 194.332L16.0939 192.344L16.3832 192.363C4.37128 187.813 1.50047 178.432 1.00708 176.37C0.874917 175.82 1.05994 175.248 1.48873 174.88C1.91751 174.51 2.51223 174.412 3.03794 174.623L4.41828 175.178C0.736883 167.958 -0.653734 161.047 0.283134 154.593C1.12015 148.825 3.61357 145.502 3.89551 145.143L4.3052 144.619L4.9895 144.6C5.41388 144.598 5.83092 144.783 6.10552 145.119C13.6739 154.437 25.9295 151.793 40.1206 148.733C50.4393 146.507 61.1091 144.207 71.0123 146.481C82.3854 149.092 90.6659 157.432 96.3268 171.973L103.552 187.691L102.359 188.296C84.2488 197.479 68.0254 202.809 54.1413 204.142C51.7918 204.368 49.4922 204.479 47.2499 204.479V204.476ZM21.1204 194.879C30.2482 200.397 41.2469 202.58 53.8755 201.37C67.1091 200.101 82.5895 195.071 99.9068 186.415L93.7497 173.013C81.9125 142.557 60.9652 147.075 40.708 151.446C26.9222 154.42 13.8648 157.234 5.19068 148.271C3.24792 151.843 -0.418783 161.93 8.64593 177.067C8.96605 177.604 8.90878 178.281 8.50349 178.753C8.09967 179.224 7.43887 179.386 6.86324 179.152L4.59743 178.241C5.1804 179.548 6.09818 181.196 7.51816 182.904C11.0615 187.168 16.1717 189.98 22.7078 191.264C23.326 191.387 23.7959 191.863 23.9089 192.477C24.022 193.089 23.7548 193.7 23.2276 194.031C22.815 194.291 22.1351 194.63 21.1218 194.878L21.1204 194.879ZM6.08937 146.846C6.08937 146.846 6.08643 146.849 6.08496 146.852C6.08643 146.85 6.0879 146.847 6.08937 146.846Z" fill="#2C2C2F"/>
<path opacity="0.15" d="M13.0822 155.212C13.0822 155.212 8.69598 153.526 6.22019 150.941C6.22019 150.941 4.98229 158.246 13.0822 155.212Z" fill="#2C2C2F"/>
<path opacity="0.1" d="M91.8579 184.22C93.3704 183.84 94.6876 183.441 95.739 183.09C89.8975 177.736 83.3659 174.129 76.799 172.651C76.4113 173.812 75.8651 174.915 75.1661 175.941C70.9032 175.471 65.6652 175.961 60.0029 178.871C45.6797 186.229 38.4403 194.957 25.96 195.082C25.96 195.082 49.0777 209.176 94.8653 187.055C93.8741 186.038 92.8462 185.084 91.8579 184.221V184.22Z" fill="#4791FF"/>
<path d="M89.1877 177.927C77.2257 186.702 70.8482 202.982 78.819 218.392C72.7969 223.891 76.1655 230.91 80.9438 230.236L86.9894 230.281C86.9894 230.281 90.6664 230.875 94.3169 228.955C97.966 227.033 100.264 226.249 100.264 226.249C100.264 226.249 114.853 227.978 124.521 227.708C134.19 227.978 148.779 226.249 148.779 226.249C148.779 226.249 151.077 227.033 154.726 228.955C158.375 230.877 162.053 230.281 162.053 230.281L168.099 230.236C172.877 230.912 176.246 223.893 170.224 218.392C178.195 202.982 171.819 186.701 159.855 177.927" fill="#B3B8C4"/>
<path d="M160.645 231.584C159.096 231.584 156.627 231.33 154.157 230.03C151.32 228.536 149.308 227.741 148.632 227.489C146.526 227.728 133.411 229.166 124.52 228.922C115.625 229.166 102.514 227.728 100.408 227.489C99.7323 227.741 97.7205 228.535 94.882 230.029C91.2227 231.957 87.5662 231.585 86.8966 231.496L81.0184 231.452C78.5265 231.761 76.1916 230.417 75.0521 228.002C73.3164 224.324 75.0771 220.549 77.3341 218.149C69.2018 201.427 77.3121 185.128 88.4664 176.947L89.9069 178.907C79.3826 186.627 71.7628 202.102 79.8995 217.835L80.3268 218.662L79.6396 219.29C76.5441 222.118 76.3781 225.109 77.2548 226.965C77.9538 228.447 79.3018 229.241 80.7732 229.031L80.8628 229.018L87.183 229.079C87.2123 229.084 90.5266 229.574 93.7484 227.876C97.44 225.932 99.7719 225.13 99.8703 225.096L100.132 225.006L100.406 225.039C100.552 225.056 115.019 226.757 124.486 226.488H124.52H124.553C134.022 226.757 148.488 225.055 148.633 225.039L148.908 225.006L149.169 225.096C149.266 225.13 151.599 225.932 155.291 227.876C158.513 229.572 161.828 229.084 161.859 229.078L162.041 229.063L168.177 229.018L168.266 229.031C169.736 229.239 171.085 228.447 171.786 226.965C172.663 225.108 172.495 222.118 169.401 219.29L168.714 218.662L169.141 217.835C177.278 202.102 169.658 186.627 159.134 178.907L160.574 176.947C171.727 185.128 179.837 201.427 171.707 218.149C173.964 220.549 175.724 224.324 173.989 228.002C172.849 230.417 170.517 231.76 168.021 231.452L162.143 231.496C161.925 231.525 161.392 231.584 160.645 231.584Z" fill="#282525"/>
<path opacity="0.2" d="M132.679 216.282H116.237V227.6H132.679V216.282Z" fill="#2C2C2F"/>
<path opacity="0.2" d="M81.5545 218.394C81.5545 218.394 76.5941 210.42 77.8981 200.36C77.8981 200.36 81.0846 213.473 92.3476 215.131L92.7896 219.807L90.7176 225.69C90.7176 225.69 90.1376 219.249 83.3299 218.887" fill="#2C2C2F"/>
<path d="M80.4726 229.094C80.3199 228.914 79.3258 228.402 79.8148 225.447C79.8809 225.049 80.2715 224.792 80.665 224.879L81.2906 225.015C81.6679 225.097 81.9249 225.455 81.8735 225.84C81.5842 227.963 82.549 229.009 82.5843 229.054L80.4726 229.096V229.094Z" fill="#2C2C2F"/>
<path d="M86.8039 229.094C86.657 228.919 85.6453 228.44 85.9933 225.771C86.0667 225.203 86.6115 224.817 87.1725 224.939L87.7496 225.065C88.0051 225.121 88.1725 225.369 88.1299 225.627C87.754 227.913 88.4999 229.109 88.5352 229.154L86.8054 229.093L86.8039 229.094Z" fill="#2C2C2F"/>
<path d="M167.142 228.718C167.975 227.476 167.922 225.81 167.628 224.392C167.568 224.114 167.887 223.878 168.135 224.013L168.507 224.201C170.392 225.125 170.263 227.784 168.699 228.912C168.411 229.134 167.969 229.285 167.555 229.36C167.195 229.453 166.912 228.999 167.144 228.718H167.142Z" fill="#2C2C2F"/>
<path d="M160.918 228.78C161.75 227.537 161.697 225.872 161.404 224.453C161.342 224.176 161.662 223.94 161.91 224.075L162.282 224.263C164.167 225.187 164.038 227.845 162.474 228.974C162.186 229.195 161.744 229.346 161.33 229.421C160.971 229.515 160.687 229.06 160.919 228.78H160.918Z" fill="#2C2C2F"/>
<path opacity="0.2" d="M167.488 218.394C167.488 218.394 172.448 210.42 171.144 200.36C171.144 200.36 167.958 213.473 156.695 215.131L156.253 219.807L158.325 225.69C158.325 225.69 158.905 219.249 165.713 218.887" fill="#2C2C2F"/>
<path d="M95.8411 145.655C85.3784 160.683 83.7411 184.298 93.3491 218.847C93.3902 218.997 93.3491 219.155 93.2434 219.268C89.8616 222.895 90.4592 229.926 96.7442 230.982C96.8132 230.994 96.8793 231.023 96.9351 231.066C99.2904 232.903 103.606 232.766 105.672 230.916C105.777 230.824 105.915 230.781 106.053 230.806C113.017 232.067 116.702 228.305 115.736 220.119C115.734 220.103 115.733 220.088 115.733 220.072V197.797" fill="#B3B8C4"/>
<path d="M101.23 233.582C99.455 233.582 97.6709 233.107 96.3493 232.146C93.4564 231.599 91.3022 229.807 90.4197 227.206C89.4696 224.406 90.1334 221.071 92.0658 218.765C87.4197 201.942 85.3301 187.178 85.8543 174.877C86.3668 162.856 89.3918 152.79 94.8441 144.958L96.8412 146.347C91.6561 153.795 88.778 163.428 88.2846 174.979C87.7662 187.125 89.8646 201.773 94.5225 218.519C94.6782 219.078 94.5328 219.666 94.1349 220.094C92.5739 221.768 92.0071 224.311 92.7237 226.422C93.1584 227.703 94.245 229.326 96.9469 229.781C97.2142 229.825 97.4712 229.938 97.6856 230.106C99.5197 231.537 103.208 231.487 104.86 230.008C105.248 229.662 105.761 229.515 106.269 229.606C109.161 230.13 111.339 229.726 112.743 228.409C114.36 226.892 114.977 224.075 114.527 220.262L114.515 220.069V199.011C114.515 198.339 115.06 197.794 115.733 197.794C116.405 197.794 116.95 198.339 116.95 199.011V220.021C117.49 224.673 116.636 228.092 114.411 230.181C112.508 231.968 109.672 232.615 106.195 232.061C104.897 233.07 103.069 233.579 101.23 233.579V233.582ZM96.1863 232.026C96.1863 232.026 96.1878 232.026 96.1892 232.028C96.1892 232.028 96.1878 232.027 96.1863 232.026ZM116.944 219.975V219.978C116.944 219.978 116.944 219.977 116.944 219.975Z" fill="#282525"/>
<g opacity="0.2">
<path d="M90.6943 162.062C90.6943 162.062 90.9733 182.547 103.371 191.349C103.443 191.4 103.53 191.431 103.618 191.433C104.022 191.437 105.148 191.255 105.382 189.12C105.421 188.762 105.856 188.601 106.122 188.846C107.401 190.023 110.347 192.445 114.201 193.79" fill="#2C2C2F"/>
</g>
<g opacity="0.2">
<path d="M112.715 213.439V219.714C112.715 219.995 112.461 220.206 112.186 220.15C110.07 219.73 102.218 218.218 99.8777 218.392C97.421 218.576 96.3535 218.36 95.4974 215.957C95.3755 215.616 95.6912 215.279 96.0378 215.38C98.6369 216.131 106.937 218.008 111.963 213.119C112.244 212.846 112.715 213.047 112.715 213.438V213.439Z" fill="#2C2C2F"/>
</g>
<path d="M108.192 220.664C106.235 220.678 104.52 220.441 102.656 220.221C100.86 219.986 99.2524 219.764 97.4814 219.133C97.3258 219.078 97.2142 218.94 97.1907 218.777L97.1657 218.602C97.1305 218.356 97.3023 218.124 97.549 218.095C101.144 217.654 104.85 218.203 108.163 219.666C108.391 219.766 108.487 220.037 108.382 220.262L108.192 220.665V220.664Z" fill="#2C2C2F"/>
<path d="M105.132 229.244C102.906 228.739 102.271 225.411 104.273 224.242C104.388 224.176 104.524 224.161 104.653 224.189L104.807 224.223C105.094 224.285 105.283 224.558 105.238 224.847C105.06 225.985 105.082 227.188 105.57 228.237C105.578 228.258 105.589 228.278 105.599 228.299C105.712 228.526 105.653 228.802 105.458 228.966L105.132 229.242V229.244Z" fill="#2C2C2F"/>
<path d="M97.2167 228.895C96.4238 227.831 96.205 226.02 96.415 224.515C96.4693 224.123 96.8526 223.867 97.2402 223.95C97.3694 223.978 97.4517 224.023 97.5134 224.092C97.6954 224.298 97.8041 224.478 97.9201 224.653C98.6881 225.811 98.4664 226.92 97.9686 228.157C97.9275 228.259 97.8599 228.352 97.7747 228.424L97.2197 228.893L97.2167 228.895Z" fill="#2C2C2F"/>
<path d="M88.2348 220.087C85.7693 218.937 83.6371 218.844 82.5652 218.896C82.1379 218.916 81.759 218.627 81.6753 218.209L81.5901 217.786C81.4947 217.308 81.8398 216.85 82.3258 216.819C83.6107 216.739 86.1232 216.819 89.0396 218.163C89.3465 218.304 89.4786 218.672 89.3244 218.973L88.8707 219.865C88.7517 220.097 88.4698 220.198 88.2334 220.088L88.2348 220.087Z" fill="#2C2C2F"/>
<path d="M153.2 145.655C163.687 160.718 165.308 184.408 155.624 219.089C159.217 222.678 158.681 229.991 152.189 231C149.791 232.957 145.226 232.781 143.208 230.765C136.095 232.146 132.323 228.384 133.308 220.096V197.797" fill="#B3B8C4"/>
<path d="M147.809 233.597C145.973 233.597 144.148 233.08 142.845 232.062C139.387 232.615 136.565 231.979 134.662 230.211C132.414 228.124 131.549 224.697 132.092 220.024V199.012C132.092 198.34 132.637 197.796 133.309 197.796C133.982 197.796 134.527 198.34 134.527 199.012V220.166L134.518 220.238C134.061 224.079 134.684 226.912 136.318 228.429C137.757 229.765 139.998 230.148 142.978 229.569L143.613 229.446L144.07 229.904C145.685 231.518 149.533 231.599 151.421 230.057L151.677 229.848L152.003 229.798C154.186 229.458 155.727 228.239 156.339 226.365C157.041 224.214 156.393 221.576 154.765 219.949L154.261 219.447L154.452 218.764C159.145 201.954 161.267 187.253 160.76 175.066C160.277 163.475 157.398 153.814 152.201 146.35L154.198 144.961C159.663 152.81 162.688 162.906 163.192 174.965C163.703 187.248 161.612 201.98 156.976 218.766C158.891 221.048 159.568 224.314 158.652 227.119C157.785 229.773 155.622 231.591 152.693 232.146C151.356 233.117 149.578 233.597 147.809 233.597Z" fill="#282525"/>
<g opacity="0.2">
<path d="M158.347 162.062C158.347 162.062 158.066 182.66 145.567 191.421C145.567 191.421 143.576 191.804 143.617 188.168C143.617 188.168 140.063 191.968 134.84 193.792" fill="#2C2C2F"/>
</g>
<g opacity="0.2">
<path d="M136.324 212.308V220.257C136.324 220.257 146.447 218.19 149.161 218.394C151.875 218.596 152.894 218.313 153.804 215.128C153.804 215.128 142.151 219.312 136.322 212.308H136.324Z" fill="#2C2C2F"/>
</g>
<path d="M140.466 219.851C143.12 216.824 148.559 215.776 151.941 218.152L152.123 218.287C152.309 218.425 152.347 218.689 152.209 218.874C152.114 219.001 151.96 219.06 151.811 219.038C148.105 218.497 144.239 219.07 140.848 220.661C140.447 220.859 140.046 220.338 140.338 220.002L140.466 219.848V219.851Z" fill="#2C2C2F"/>
<path d="M143.224 228.664C142.383 226.766 142.531 225.432 144.051 223.985C144.218 223.8 144.55 223.902 144.587 224.147L144.703 224.775C144.859 225.846 144.853 226.95 144.525 227.997C144.414 228.312 143.903 229.844 143.449 229.186L143.223 228.664H143.224Z" fill="#2C2C2F"/>
<path d="M151.137 228.315C151.97 227.072 151.917 225.407 151.624 223.988C151.563 223.711 151.882 223.475 152.13 223.61L152.502 223.797C154.387 224.722 154.258 227.38 152.694 228.509C152.406 228.73 151.964 228.881 151.55 228.956C151.19 229.05 150.907 228.595 151.139 228.315H151.137Z" fill="#2C2C2F"/>
<path d="M157.26 158.152C157.26 158.152 157.885 172.412 149.076 184.788C146.756 183.411 145.825 180.216 144.461 178.08C144.461 178.266 144.392 186.022 133.309 193.795C133.309 193.795 133.309 191.315 134.387 188.514C127.797 194 121.22 193.991 114.657 188.514C115.735 191.315 115.735 193.795 115.735 193.795C104.644 186.019 104.579 178.259 104.579 178.08C103.219 180.216 102.284 183.411 99.9683 184.788C91.1591 172.412 91.7846 158.152 91.7846 158.152C90.2457 159.302 88.6466 160.501 87.0166 161.717C87.7156 149.133 96.5512 140.484 96.5512 140.484H152.492C152.492 140.484 161.327 149.133 162.022 161.717C160.396 160.501 158.797 159.304 157.258 158.152H157.26Z" fill="white"/>
<path opacity="0.15" d="M132.805 146.274C132.805 146.274 148.53 148.037 156.253 153.227C156.253 153.227 156.4 149.491 151.878 143.784" fill="#4791FF"/>
<path opacity="0.15" d="M116.238 146.274C116.238 146.274 100.512 148.037 92.7896 153.227C92.7896 153.227 92.6428 149.491 97.1641 143.784" fill="#4791FF"/>
<path d="M163.239 161.65C163.035 158.573 162.399 155.523 161.361 152.621C159.571 147.819 156.89 143.335 153.342 139.617C152.175 138.492 150.518 140.164 151.605 141.319C152.587 142.32 153.511 143.48 154.351 144.619L155.172 145.797C157.17 148.769 158.715 152.053 159.73 155.483C160.065 156.659 160.313 157.853 160.498 159.057C159.264 158.136 157.987 157.179 157.987 157.179C157.203 156.56 155.973 157.204 156.042 158.206C156.082 162.768 155.333 167.376 154.02 171.744C153.382 173.905 152.531 176.133 151.542 178.16C150.769 179.853 149.812 181.447 148.8 182.999C147.37 181.519 146.619 179.154 145.489 177.424C144.851 176.407 143.235 176.868 143.245 178.087C142.941 181.529 141.014 184.606 138.854 187.235C138.605 187.509 137.887 188.291 137.652 188.552C136.69 189.516 135.587 190.496 134.54 191.358C134.54 191.358 134.464 191.415 134.458 191.419C134.505 190.499 134.627 189.584 134.832 188.674C134.956 188.152 134.205 187.851 133.944 188.343C133.041 190.046 132.359 191.898 132.091 193.826C132.054 194.781 133.254 195.391 134.007 194.791C138.678 191.449 143.061 187.11 144.956 181.574C145.436 182.497 145.954 183.414 146.599 184.193C147.34 185.031 148.978 186.918 150.066 185.492C152.142 182.511 153.877 179.267 155.189 175.88C157.025 170.965 158.188 165.79 158.427 160.547C159.761 161.544 161.308 162.702 161.324 162.714C162.117 163.333 163.345 162.665 163.238 161.65H163.239Z" fill="#282525"/>
<path d="M115.099 188.341C114.999 188.158 114.786 188.054 114.572 188.102C114.314 188.161 114.152 188.416 114.211 188.674C114.415 189.577 114.54 190.488 114.588 191.402C113.902 190.86 113.227 190.3 112.682 189.795C112.358 189.48 111.723 188.875 111.391 188.551C111.184 188.327 110.385 187.443 110.189 187.233C108.456 185.14 106.932 182.789 106.187 180.178C106.002 179.556 105.871 178.926 105.81 178.289C105.813 177.802 105.685 177.327 105.228 177.045C104.661 176.687 103.911 176.856 103.553 177.422C102.783 178.643 102.249 179.908 101.573 181.115C101.172 181.837 100.732 182.497 100.236 183.017C96.6951 177.616 94.4587 171.397 93.5042 165.017C93.2531 163.315 93.0739 161.597 93.0137 159.878C92.9888 159.314 92.9873 158.723 92.999 158.205C93.0108 157.932 92.933 157.658 92.7568 157.423C92.3544 156.886 91.5908 156.776 91.0534 157.178L88.5394 159.059C89.5908 152.455 92.8478 146.222 97.4014 141.353C98.5571 140.185 96.8772 138.493 95.6981 139.616C94.2516 141.081 93.0079 142.76 91.8449 144.444C89.7112 147.618 88.0533 151.145 86.9696 154.814C86.3352 157.041 85.974 159.336 85.8022 161.648C85.6891 162.646 86.9197 163.342 87.7185 162.711C87.7303 162.699 89.2912 161.534 90.629 160.535C91.046 169.408 93.8831 178.196 98.9756 185.489C100.061 186.909 101.703 185.036 102.443 184.19C103.081 183.417 103.597 182.509 104.073 181.595C104.967 184.248 106.576 186.677 108.334 188.809C108.604 189.103 109.387 189.97 109.642 190.243C109.96 190.555 110.697 191.254 111.034 191.585C112.153 192.618 113.776 193.877 115.033 194.787C115.781 195.384 116.983 194.784 116.949 193.821C116.894 193.275 116.775 192.825 116.651 192.316C116.296 190.934 115.769 189.584 115.096 188.34L115.099 188.341Z" fill="#282525"/>
<path d="M167.095 218.516C164.703 217.91 162.081 218.256 159.781 219.113C159.442 219.249 159.107 218.834 159.305 218.533L159.463 218.275C160.721 216.277 163.285 215.816 165.405 216.448C166.172 216.687 166.937 217.126 167.521 217.827C167.809 218.124 167.485 218.637 167.097 218.516H167.095Z" fill="#2C2C2F"/>
<path opacity="0.1" d="M94.2061 157.31C94.2061 157.31 95.3485 172.358 100.23 179.622L102.773 174.432C102.773 174.432 97.3221 169.555 94.2061 157.308V157.31Z" fill="#4791FF"/>
<path opacity="0.1" d="M106.566 173.81L114.201 183.15L113.732 180.763C116.276 185.394 119.346 188.604 122.976 190.31C119.691 190.043 116.747 188.62 114.201 185.848V189.688C114.201 189.688 107.085 184.499 106.566 173.81Z" fill="#4791FF"/>
<path opacity="0.1" d="M154.835 157.31C154.835 157.31 153.693 172.358 148.812 179.622L146.269 174.432C146.269 174.432 151.719 169.555 154.835 157.308V157.31Z" fill="#4791FF"/>
<path opacity="0.1" d="M142.475 173.81L134.841 183.15L135.309 180.763C132.766 185.394 129.695 188.604 126.065 190.31C129.35 190.043 132.295 188.62 134.841 185.848V189.688C134.841 189.688 141.957 184.499 142.475 173.81Z" fill="#4791FF"/>
<path d="M194.352 116.154L189.715 113.565C189.715 113.565 190.072 117.933 188.885 125.775L185.791 123.635C185.791 123.635 183.622 130.617 179.437 134.912L176.639 131.716C176.639 131.716 162.227 143.237 139.468 145.971C129.507 147.751 119.542 147.751 109.572 145.971C107.329 145.703 105.169 145.346 103.096 144.925C103.056 144.917 103.018 144.908 102.978 144.899H102.97C84.0648 141.034 72.4054 131.716 72.4054 131.716L69.6021 134.912C65.417 130.617 63.2481 123.635 63.2481 123.635L60.1585 125.775C58.9676 117.933 59.3244 113.565 59.3244 113.565L54.6871 116.154C55.1658 109.497 58.4948 105.107 58.4948 105.107L53.8574 103.917C60.9544 95.2812 63.6534 85.5977 66.1087 74.8505C57.7385 59.618 55.4522 45.6019 55.878 31.5153L59.5153 33.6075C54.3082 22.7004 56.2172 15.7444 56.2172 15.7444L59.95 17.998C57.9559 7.51197 63.765 1.34534 63.765 1.34534C74.5684 8.62264 89.501 5.10577 108.193 33.6075C115.516 31.1456 124.52 31.5447 124.52 31.5447C124.52 31.5447 133.521 31.1456 140.844 33.6075C159.54 5.10577 174.473 8.62264 185.276 1.34534C185.276 1.34534 191.087 7.51197 189.091 17.998L192.819 15.7444C192.819 15.7444 194.727 22.7004 189.526 33.6075L193.163 31.5153C193.589 45.6019 191.302 59.618 182.932 74.8505C185.388 85.5977 188.082 95.2812 195.184 103.917L190.546 105.107C190.546 105.107 193.819 109.424 194.336 115.989C194.341 116.042 194.345 116.098 194.349 116.154H194.352Z" fill="#B3B8C4"/>
<path opacity="0.1" d="M176.469 61.6501L182.933 74.8505L189.664 57.6373C189.664 57.6373 180.818 66.552 178.006 58.5411" fill="#2C2C2F"/>
<path opacity="0.1" d="M72.5724 61.6501L66.1083 74.8505L59.377 57.6373C59.377 57.6373 68.2229 66.552 71.0349 58.5411" fill="#2C2C2F"/>
<path opacity="0.1" d="M169.578 19.0735C172.672 14.5414 176.854 11.0524 182.945 9.38708C182.945 9.38708 192.687 33.6501 179.628 60.1873" fill="#2C2C2F"/>
<path opacity="0.1" d="M136.98 33.9876C136.98 33.9876 142.929 35.1863 151.192 40.3655C149.54 34.8826 149.87 29.3982 152.183 23.9153L142.102 33.9876H136.979H136.98Z" fill="#2C2C2F"/>
<path opacity="0.1" d="M112.062 33.9876C112.062 33.9876 106.114 35.1863 97.8506 40.3655C99.5026 34.8826 99.1722 29.3982 96.8594 23.9153L106.94 33.9876H112.064H112.062Z" fill="#2C2C2F"/>
<path opacity="0.1" d="M79.4637 19.0735C76.3697 14.5414 72.1875 11.0524 66.0964 9.38708C66.0964 9.38708 56.3548 33.6501 69.4136 60.1873" fill="#2C2C2F"/>
<path d="M175.299 15.2295C175.299 15.2295 161.243 19.6707 155.235 37.437C155.235 37.437 167.663 45.5242 175.299 60.1874" fill="white"/>
<path d="M182.74 36.6022C182.74 36.6022 184.584 23.6952 177.235 15.7592C177.235 15.7592 165.211 20.6801 162.024 36.6022C162.024 36.6022 164.403 31.5359 172.486 31.9702C172.486 31.9702 171.442 35.8788 167.384 39.2079C167.384 39.2079 172.02 40.3655 174.628 44.7084L167.53 45.7223C167.53 45.7223 174.193 51.6571 177.38 64.9734C181.627 57.2002 183.656 47.9099 182.74 36.6036V36.6022Z" fill="white"/>
<path opacity="0.2" d="M168.726 31.5799C168.726 31.5799 176.889 27.1226 180.685 32.8124C180.685 32.8124 181.017 25.6055 175.299 17.8293C175.299 17.8293 166.3 23.3489 164.203 33.1924L168.726 31.5799Z" fill="#4791FF"/>
<path d="M73.7422 15.2295C73.7422 15.2295 87.7981 19.6707 93.8056 37.437C93.8056 37.437 81.3781 45.5242 73.7422 60.1874" fill="white"/>
<path d="M66.3016 36.6022C66.3016 36.6022 64.4572 23.6952 71.8068 15.7592C71.8068 15.7592 83.8304 20.6801 87.0169 36.6022C87.0169 36.6022 84.638 31.5359 76.5557 31.9702C76.5557 31.9702 77.5998 35.8788 81.6571 39.2079C81.6571 39.2079 77.0212 40.3655 74.4132 44.7084L81.5117 45.7223C81.5117 45.7223 74.8479 51.6571 71.6614 64.9734C67.4146 57.2002 65.3852 47.9099 66.3016 36.6036V36.6022Z" fill="white"/>
<path opacity="0.2" d="M80.3151 31.5799C80.3151 31.5799 72.1521 27.1226 68.3561 32.8124C68.3561 32.8124 68.0243 25.6055 73.7424 17.8293C73.7424 17.8293 82.741 23.3489 84.838 33.1924L80.3151 31.5799Z" fill="#4791FF"/>
<path d="M189.714 113.796C189.714 113.796 190.071 118.183 188.885 126.059L185.791 123.909C185.791 123.909 183.622 130.921 179.437 135.234L176.638 132.024C176.638 132.024 162.227 143.593 139.467 146.341C129.507 148.13 119.542 148.13 109.571 146.341C107.329 146.071 105.169 145.713 103.095 145.291C103.056 145.282 103.017 145.273 102.978 145.264H102.969C84.0642 141.383 72.4048 132.024 72.4048 132.024L69.6015 135.234C65.4165 130.921 63.2476 123.909 63.2476 123.909L60.158 126.059C58.967 118.183 59.3239 113.796 59.3239 113.796L54.6865 116.394C56.6425 107.519 64.3694 99.0328 70.089 93.77C74.048 90.1284 77.073 85.5845 78.9203 80.5212C90.7192 48.2032 116.282 59.863 124.535 77.9829C132.783 59.863 158.35 48.2017 170.144 80.5212C171.992 85.5845 175.021 90.1284 178.98 93.77C184.66 98.9991 192.327 107.415 194.339 116.228C194.343 116.281 194.347 116.337 194.352 116.394L189.714 113.796Z" fill="white"/>
<path opacity="0.1" d="M124.505 145.655C141.039 145.655 165.863 137.699 175.854 127.79L179.997 133.236L185.791 123.636L188.936 125.611L189.715 113.567H191.48C191.48 113.567 190.462 108.182 187.192 104.624C185.174 125.064 150.851 139.12 124.52 139.12C98.1895 139.12 63.866 125.064 61.8484 104.624C58.5782 108.182 57.5605 113.568 57.5605 113.568H59.3256L60.1039 125.613L63.2493 123.638L69.0438 133.238L73.1863 127.791C83.1761 137.701 108.002 145.656 124.535 145.656" fill="#4791FF"/>
<path opacity="0.15" d="M124.508 124.442C115.273 123.761 111.164 116.796 111.164 116.796C117.089 120.351 124.521 119.929 124.521 119.929C124.521 119.929 131.953 120.35 137.878 116.796C137.878 116.796 133.769 123.761 124.534 124.442" fill="#4791FF"/>
<path d="M132.102 99.0725C131.572 102.716 128.199 104.748 124.523 104.748C120.848 104.748 117.475 102.716 116.945 99.0725C116.884 98.6514 117.053 98.2171 117.401 97.9735C119.065 96.7968 121.773 96.3669 124.525 96.3669C127.277 96.3669 129.983 96.7968 131.644 97.9735C131.992 98.2171 132.165 98.6514 132.105 99.0725H132.102Z" fill="#282525"/>
<path d="M132.102 99.0725C131.572 102.716 128.199 104.748 124.523 104.748C120.848 104.748 117.475 102.716 116.945 99.0725C116.884 98.6514 117.053 98.2171 117.401 97.9735C119.065 96.7968 121.773 96.3669 124.525 96.3669C127.277 96.3669 129.983 96.7968 131.644 97.9735C131.992 98.2171 132.165 98.6514 132.105 99.0725H132.102Z" stroke="#3F3F3F" stroke-width="2" stroke-miterlimit="10"/>
<path opacity="0.47" d="M124.521 99.6417C126.608 99.6417 128.3 99.0781 128.3 98.3829C128.3 97.6876 126.608 97.124 124.521 97.124C122.435 97.124 120.743 97.6876 120.743 98.3829C120.743 99.0781 122.435 99.6417 124.521 99.6417Z" fill="white"/>
<path d="M149.074 101.436C154.38 101.436 158.681 96.3144 158.681 89.9964C158.681 83.6784 154.38 78.5566 149.074 78.5566C143.769 78.5566 139.468 83.6784 139.468 89.9964C139.468 96.3144 143.769 101.436 149.074 101.436Z" fill="#2C2C2F"/>
<path d="M145.68 91.556C147.186 91.556 148.407 90.0787 148.407 88.2563C148.407 86.4339 147.186 84.9565 145.68 84.9565C144.174 84.9565 142.953 86.4339 142.953 88.2563C142.953 90.0787 144.174 91.556 145.68 91.556Z" fill="white"/>
<path d="M99.9679 101.436C105.273 101.436 109.574 96.3144 109.574 89.9964C109.574 83.6784 105.273 78.5566 99.9679 78.5566C94.6623 78.5566 90.3613 83.6784 90.3613 89.9964C90.3613 96.3144 94.6623 101.436 99.9679 101.436Z" fill="#2C2C2F"/>
<path d="M103.362 91.556C104.868 91.556 106.089 90.0787 106.089 88.2563C106.089 86.4339 104.868 84.9565 103.362 84.9565C101.856 84.9565 100.635 86.4339 100.635 88.2563C100.635 90.0787 101.856 91.556 103.362 91.556Z" fill="white"/>
<path d="M140.475 113.485C138.985 113.633 137.581 113.991 136.19 114.27C134.631 114.587 133.12 114.843 131.619 114.6C129.4 114.195 127.338 112.935 125.973 111.152C125.833 110.497 125.193 109.996 124.525 110.016C123.852 109.99 123.209 110.495 123.071 111.152C121.804 112.808 119.939 114.004 117.902 114.501C114.788 115.195 111.723 113.765 108.567 113.485C108.115 113.43 107.904 114.061 108.296 114.293C109.583 115.078 110.977 115.617 112.442 116.011C116.767 117.232 121.187 116.347 124.522 113.432C126.597 115.235 129.215 116.377 131.97 116.528C133.581 116.617 135.137 116.399 136.601 116.011C138.067 115.617 139.46 115.08 140.748 114.293C140.886 114.208 140.973 114.05 140.955 113.876C140.932 113.636 140.717 113.461 140.477 113.485H140.475Z" fill="#282525"/>
<path d="M121.418 119.971C123.505 120.746 125.565 120.756 127.65 119.971C128.11 119.805 128.454 120.438 128.069 120.731C126.624 121.898 124.427 122.304 122.637 121.639C122.155 121.447 120.401 120.765 120.935 120.111C121.056 119.964 121.249 119.914 121.42 119.973L121.418 119.971Z" fill="#282525"/>
<path d="M94.2939 60.6289C96.0766 56.1569 100.94 53.2196 104.024 55.0301C105.134 55.6816 105.768 56.9639 105.62 58.2418C105.135 62.4145 97.3101 60.0567 94.2939 60.6289Z" fill="#282525"/>
<path d="M154.748 60.6289C152.965 56.1569 148.102 53.2196 145.018 55.0301C143.908 55.6816 143.273 56.9639 143.422 58.2418C143.906 62.4145 151.732 60.0567 154.748 60.6289Z" fill="#282525"/>
<path d="M196.036 104.952C196.609 104.482 196.691 103.637 196.221 103.066C194.584 101.074 193.124 98.9404 191.853 96.6956C188.046 89.9949 186.085 82.5606 184.353 75.0398C186.082 71.8369 187.637 68.5357 188.967 65.1391C193.206 54.4829 194.898 42.9067 194.503 31.4772C194.499 30.4913 193.339 29.8428 192.493 30.3563C192.493 30.3563 192.325 30.4531 192.308 30.4634C193.789 26.4682 194.684 22.2207 194.466 17.9511C194.428 17.3305 194.367 16.7011 194.259 16.0819C194.186 15.7503 194.158 15.3498 193.966 15.0387C193.585 14.4108 192.769 14.2098 192.14 14.5898C192.136 14.5912 191.515 14.9668 190.779 15.4114C191.046 11.6847 190.443 7.88614 188.842 4.49398C188.252 3.23953 187.543 2.02909 186.681 0.934561L186.482 0.692473C186.064 0.0498407 185.193 -0.231861 184.524 0.234708C180.857 2.70987 176.365 3.98193 171.924 5.61492C167.437 7.22297 163.014 9.27705 159.065 11.9958C151.419 17.194 145.394 24.4259 140.282 32.0377C135.171 30.5441 129.849 30.1039 124.53 30.2081C123.091 30.1626 121.724 30.1861 120.326 30.2462C116.419 30.4326 112.518 30.9285 108.756 32.0392C106.305 28.38 103.642 24.844 100.699 21.5281C97.4889 17.9761 93.9528 14.6881 89.9719 11.9958C86.0232 9.27705 81.6003 7.22297 77.1127 5.61492C72.6721 3.98193 68.1802 2.70987 64.5135 0.234708C63.9804 -0.136493 63.2389 -0.0660679 62.7866 0.426911C62.6838 0.538418 62.625 0.607376 62.5546 0.692473L62.3563 0.934561C61.4943 2.02909 60.7851 3.23953 60.1948 4.49398C58.5942 7.88614 57.9906 11.6847 58.2579 15.4114C57.5266 14.9698 56.9113 14.5986 56.9113 14.5986C56.1727 14.1232 55.1316 14.5384 54.9245 15.3909C54.8819 15.5552 54.8643 15.6403 54.8408 15.7591L54.7806 16.0819C54.0684 20.9457 55.0346 25.8813 56.741 30.4693C56.6191 30.3988 56.5457 30.3577 56.5457 30.3577C55.7043 29.8442 54.5413 30.4913 54.5354 31.4787C54.1404 42.9082 55.832 54.4843 60.0714 65.1406C61.4018 68.5357 62.9569 71.8384 64.6853 75.0412C62.954 82.5621 60.9921 89.9949 57.1859 96.6971C55.9142 98.9434 54.4546 101.075 52.8173 103.068C52.6984 103.213 52.6044 103.39 52.5544 103.584C52.3694 104.302 52.8026 105.031 53.5192 105.216L56.3812 105.951C56.1771 106.316 55.9818 106.686 55.7938 107.064C54.8775 108.936 54.1947 110.917 53.7821 112.961C53.5603 113.979 53.4399 115.018 53.3474 116.057C53.3239 116.314 53.3753 116.579 53.5104 116.821C53.8716 117.47 54.6969 117.694 55.3386 117.321C55.3386 117.321 56.6969 116.564 57.9436 115.869C57.9701 118.219 58.1477 120.561 58.415 122.892C58.534 123.924 58.6764 124.949 58.8276 125.975C58.857 126.17 58.9319 126.368 59.0508 126.541C59.4723 127.15 60.3093 127.3 60.9172 126.876C60.9172 126.876 61.7719 126.285 62.5825 125.724C64.0201 129.464 65.8923 132.971 68.7206 135.924C69.2771 136.411 70.1244 136.353 70.6104 135.795C70.6104 135.795 71.7485 134.497 72.5708 133.556C73.6134 134.345 74.6883 135.06 75.7941 135.776C83.0203 140.308 91.0953 143.423 99.4243 145.2C102.75 145.894 106.12 146.359 109.498 146.57C109.799 146.589 110.073 146.381 110.129 146.076C110.189 145.747 109.971 145.432 109.642 145.373C103.11 144.174 96.7091 142.384 90.5681 139.896C84.5019 137.418 78.6179 134.407 73.239 130.669C72.6854 130.228 71.866 130.287 71.3917 130.833C71.3917 130.833 70.424 131.938 69.5972 132.881C67.9658 130.887 66.675 128.512 65.6412 126.147C65.2286 125.192 64.8336 124.182 64.5267 123.239C64.277 122.391 63.2065 122.012 62.4826 122.534C62.4826 122.534 61.8174 122.994 61.1874 123.431C61.1522 123.149 61.114 122.866 61.0802 122.583C60.7954 120.1 60.6045 117.602 60.6147 115.106C60.6177 114.622 60.6294 114.101 60.6588 113.676C60.6793 113.419 60.628 113.155 60.4929 112.914C60.1316 112.268 59.3152 112.037 58.6676 112.396L56.3753 113.674C56.5648 112.706 56.8159 111.749 57.1389 110.814C57.7322 109.089 58.5178 107.414 59.5589 105.917C59.6632 105.776 59.7425 105.619 59.788 105.44C59.973 104.724 59.5413 103.993 58.8232 103.81L56.1888 103.134C62.3196 95.0215 65.2521 84.9082 67.4092 75.1484C67.4797 74.8402 67.4415 74.5043 67.2771 74.2049C61.907 64.4716 58.4532 53.7361 57.5163 42.6602C57.2535 39.7229 57.1492 36.7694 57.1727 33.8115C58.0288 34.3045 58.8409 34.7711 58.8409 34.7711C59.9451 35.4166 61.2946 34.2223 60.7205 33.0324C58.5193 28.3638 56.998 23.2814 57.2461 18.1066C57.2491 18.0509 57.2549 17.9966 57.2579 17.9408C58.23 18.5277 59.2491 19.144 59.2491 19.144C60.1977 19.744 61.4958 18.874 61.2609 17.7486C61.0024 16.3812 60.8702 14.9962 60.8702 13.6141C60.8864 9.91821 61.9217 6.14898 64.0759 3.12802C67.8351 5.3787 72.1435 6.65076 76.1876 8.13117C82.6957 10.4039 88.7443 13.7887 93.8412 18.4397C98.9808 23.0775 103.251 28.5604 107.068 34.3441C107.391 34.8356 108.013 35.0733 108.601 34.8855C113.673 33.2525 119.15 32.7801 124.455 32.8872C124.472 32.8872 124.486 32.8843 124.501 32.8857C124.516 32.8857 124.527 32.8887 124.542 32.8887C125.852 32.8446 127.237 32.8652 128.588 32.9253C132.589 33.1146 136.626 33.6413 140.431 34.887C140.99 35.066 141.623 34.8606 141.962 34.3456C145.779 28.5619 150.049 23.0804 155.188 18.4412C160.284 13.7901 166.334 10.4068 172.842 8.13263C176.889 6.65223 181.2 5.3787 184.961 3.12655C187.099 6.16365 188.152 9.91234 188.161 13.617C188.161 14.9977 188.029 16.3812 187.77 17.7486C187.71 18.0626 187.762 18.3971 187.941 18.6921C188.324 19.3259 189.148 19.5284 189.782 19.1454C189.782 19.1454 190.782 18.5409 191.773 17.9423C191.778 17.9981 191.782 18.0524 191.785 18.1081C191.904 20.2913 191.673 22.4789 191.221 24.6313C190.615 27.5202 189.593 30.3357 188.311 33.0339C187.742 34.1769 189.061 35.4416 190.19 34.7725C190.19 34.7725 191.03 34.2898 191.858 33.813C191.882 36.7709 191.778 39.7243 191.515 42.6617C190.577 53.7375 187.124 64.473 181.754 74.2064C181.601 74.4837 181.546 74.8168 181.622 75.1498C183.781 84.9111 186.712 95.0215 192.842 103.135C191.588 103.458 190.209 103.812 190.209 103.812C189.322 104.024 188.902 105.129 189.443 105.873C190.5 107.383 191.295 109.074 191.894 110.816C192.217 111.751 192.468 112.707 192.657 113.676C191.51 113.036 190.365 112.398 190.365 112.398C190.146 112.274 189.891 112.213 189.622 112.23C188.883 112.28 188.324 112.918 188.374 113.656C188.403 114.092 188.416 114.613 188.419 115.107C188.428 116.6 188.356 118.093 188.245 119.587C188.148 120.871 188.01 122.152 187.847 123.431C187.217 122.995 186.552 122.534 186.552 122.534C185.829 122.021 184.757 122.382 184.507 123.239C184.201 124.182 183.806 125.193 183.393 126.147C182.361 128.51 181.068 130.887 179.437 132.881C178.61 131.938 177.642 130.833 177.642 130.833C177.177 130.303 176.358 130.218 175.795 130.669C170.415 134.407 164.532 137.418 158.466 139.896C152.325 142.384 145.924 144.174 139.392 145.373C139.094 145.426 138.876 145.696 138.896 146.005C138.917 146.338 139.204 146.591 139.536 146.57C142.914 146.359 146.282 145.895 149.61 145.2C156.277 143.787 162.754 141.494 168.798 138.335C171.462 136.92 174.055 135.378 176.46 133.553C177.286 134.495 178.424 135.795 178.424 135.795C178.932 136.385 179.855 136.41 180.394 135.848C183.173 132.894 185.027 129.432 186.452 125.726C187.262 126.286 188.115 126.876 188.115 126.876C188.894 127.451 190.086 126.935 190.205 125.975C190.356 124.949 190.499 123.924 190.618 122.892C190.885 120.561 191.063 118.219 191.089 115.87C192.34 116.573 193.709 117.341 193.715 117.333C194.6 117.867 195.809 117.084 195.685 116.055C195.521 113.976 195.111 111.918 194.431 109.947C193.954 108.565 193.371 107.221 192.651 105.949C194.004 105.602 195.513 105.214 195.513 105.214C195.696 105.167 195.876 105.079 196.03 104.952H196.036Z" fill="#282525"/>
<path d="M183.558 25.2489C182.866 21.3623 181.257 17.5242 178.511 14.581C178.039 14.0498 177.262 13.8562 176.575 14.1525C172.788 15.9469 169.6 18.8358 166.997 22.0769C166.789 22.3688 165.9 23.5807 165.706 23.8595C165.206 24.6958 164.566 25.6275 164.142 26.5034C163.651 27.4145 163.032 28.7203 162.67 29.677C162.478 30.1553 162.184 30.814 162.061 31.3099C161.891 31.8807 161.415 33.2393 161.308 33.8071C161.183 34.3514 160.858 35.779 160.731 36.3439C160.615 36.8618 160.823 37.4208 161.295 37.726C161.9 38.1163 162.707 37.9446 163.098 37.3401C163.434 36.7723 163.826 36.2265 164.318 35.7746C165.966 34.1724 168.234 33.4711 170.509 33.3053C170.177 33.9568 169.79 34.5803 169.368 35.1775C168.566 36.3013 167.607 37.3064 166.546 38.1911C165.747 38.8337 166.041 40.2276 167.048 40.4799C167.16 40.5122 167.342 40.565 167.502 40.6237C169.293 41.259 170.941 42.3257 172.23 43.721C170.146 44.0188 167.34 44.4194 167.34 44.4194C166.336 44.4634 165.787 45.7648 166.483 46.5116C167.666 47.8423 168.751 49.2963 169.751 50.7811C172.778 55.2106 174.895 60.1536 177.035 65.054C177.094 65.1919 177.233 65.2844 177.392 65.2726C177.588 65.258 177.735 65.0863 177.721 64.8912C177.65 63.9654 177.546 63.0381 177.4 62.1167C176.925 59.3496 176.098 56.647 174.956 54.0779C173.74 51.4311 172.262 48.8444 170.33 46.651C172.417 46.3531 174.813 46.0113 174.813 46.0113C175.004 45.9893 175.189 45.9262 175.361 45.8161C175.963 45.4332 176.141 44.6336 175.756 44.032C175.292 43.3043 174.797 42.5912 174.202 41.9662C173.055 40.7044 171.653 39.673 170.138 38.8983C170.029 38.844 169.922 38.7941 169.814 38.7428C169.869 38.6855 169.925 38.6298 169.979 38.5726C171.65 36.7782 173.02 34.6654 173.757 32.3106C174.017 31.5168 173.396 30.6541 172.556 30.657C170.362 30.5646 168.135 30.7847 166.079 31.599C165.603 31.7926 165.133 32.0201 164.678 32.2754C164.781 31.9863 164.881 31.7149 164.969 31.5007C165.292 30.8008 165.626 30.0129 165.955 29.3219C166.223 28.8524 166.844 27.6786 167.118 27.2414C167.434 26.7675 167.897 26.0588 168.209 25.5864C170.484 22.4921 173.383 19.7294 176.785 17.9115C180.909 23.1098 181.934 30.0408 182.298 36.539C182.298 36.7356 182.425 36.9176 182.625 36.9748C182.865 37.0437 183.116 36.9058 183.185 36.6667C183.721 34.8092 183.938 32.9209 184.001 31.0062C184.061 29.0813 183.897 27.1548 183.561 25.2504L183.558 25.2489Z" fill="#282525"/>
<path d="M87.7328 33.8071C87.6212 33.2334 87.1527 31.888 86.9794 31.3099C86.8532 30.8125 86.5565 30.1611 86.37 29.6769C86.0059 28.7174 85.395 27.4204 84.9001 26.5034C84.4757 25.6275 83.837 24.6973 83.3362 23.8595C83.1585 23.6042 82.251 22.3688 82.0455 22.0769L80.9148 20.7241C78.9573 18.5101 76.6945 16.5514 74.1438 15.0372C73.0615 14.4239 71.6386 13.372 70.5402 14.5707C65.2949 20.2517 63.9322 29.3644 65.8603 36.6652C65.9998 37.1582 66.7501 37.0569 66.7472 36.539C66.8427 34.7241 67.0057 32.8989 67.2538 31.1221C67.8823 26.4021 69.2891 21.6675 72.2583 17.9203C77.3964 20.7094 81.4434 25.4353 83.7474 30.7759C83.9647 31.2146 84.1688 31.7398 84.3627 32.2753C82.9383 31.4831 81.3377 30.9827 79.74 30.7803C78.5697 30.6424 77.3273 30.5705 76.157 30.7054C75.2686 30.9769 75.0454 31.8704 75.3949 32.6568C76.1702 34.8664 77.4713 36.8706 79.066 38.5726C79.1189 38.6298 79.1732 38.6841 79.2275 38.7398C77.9691 39.3414 76.8046 40.1263 75.7517 41.0551C74.7928 41.9236 73.969 42.9272 73.2877 44.032C73.1937 44.1816 73.1247 44.3577 73.0982 44.544C72.994 45.263 73.5094 45.9276 74.2304 46.0112C74.2304 46.0112 76.6372 46.3546 78.7253 46.6524C76.7958 48.8547 75.2965 51.4223 74.088 54.0779C72.944 56.647 72.1188 59.3495 71.643 62.1167C71.4976 63.0381 71.3934 63.9639 71.3229 64.8911C71.3126 65.032 71.3875 65.1728 71.5226 65.2389C71.7061 65.3298 71.9293 65.2418 72.0072 65.0555C73.9837 60.56 75.8956 56.0117 78.5755 51.883C79.762 49.9991 81.0895 48.1724 82.5594 46.5116C83.2437 45.778 82.718 44.4604 81.7004 44.4193L76.8105 43.7209C77.7444 42.7071 78.8663 41.8664 80.1012 41.2414C80.5682 41.0066 81.0469 40.7939 81.5374 40.6237C81.972 40.4726 82.3392 40.4286 82.6417 40.0647C83.1189 39.5072 83.0528 38.6679 82.4948 38.1911C81.9691 37.7421 81.4522 37.2814 80.9867 36.7723C80.0205 35.7394 79.1761 34.5715 78.5359 33.3053C80.8105 33.4711 83.0763 34.1724 84.7239 35.7731C85.1321 36.159 85.5022 36.6036 85.7856 37.0833C86.0646 37.657 86.6549 38.0605 87.3275 37.902C88.0294 37.7436 88.4699 37.0452 88.3113 36.3439C88.1836 35.7878 87.859 34.3456 87.7342 33.8071H87.7328Z" fill="#282525"/>
<path d="M125.911 101.436C125.661 103.229 125.263 106.105 125.016 107.87L124.987 108.084C124.978 108.138 124.967 108.234 124.959 108.288C124.567 108.288 125.834 108.288 124.081 108.289C124.147 107.788 124.884 107.782 124.958 108.285C124.958 108.285 124.958 108.295 124.958 108.289C123.204 108.289 124.472 108.289 124.08 108.288C124.071 108.234 124.059 108.138 124.052 108.084C123.928 107.208 123.729 105.757 123.605 104.868L123.128 101.436C122.955 99.3293 126.08 99.322 125.909 101.436H125.911Z" fill="#282525"/>
<path opacity="0.05" d="M183.398 85.9851C182.75 101.452 173.989 112.654 161.481 113.259C147.061 113.658 136.979 102.157 135.349 86.1157C135.648 84.066 136.491 82.1249 137.861 80.5315C148.886 67.739 181.586 70.4269 183.362 85.2251C183.376 85.4774 183.389 85.7327 183.398 85.9851Z" fill="#4791FF"/>
<path opacity="0.05" d="M115.079 86.1157C113.449 102.155 103.367 113.658 88.9468 113.259C76.4401 112.656 67.6779 101.452 67.0303 85.9851C67.0391 85.7327 67.0523 85.4774 67.0655 85.2251C68.8423 70.4269 101.542 67.739 112.567 80.5315C113.935 82.1249 114.778 84.066 115.079 86.1157Z" fill="#4791FF"/>
<path opacity="0.05" d="M106.944 98.7424C99.9965 114.193 77.5762 111.764 74.447 98.7424C73.5982 96.323 82.1578 98.2098 90.7174 98.2391C99.4062 98.2685 108.093 96.4741 106.944 98.7424Z" fill="#4791FF"/>
<path opacity="0.05" d="M143.484 98.7424C150.431 114.193 172.851 111.764 175.98 98.7424C176.829 96.323 168.27 98.2098 159.71 98.2391C151.021 98.2685 142.334 96.4741 143.484 98.7424Z" fill="#4791FF"/>
<path d="M191.441 69.6141L185.161 68.9935C168.46 62.6068 147.482 62.9105 134.588 72.076C133.193 73.0708 131.467 73.4875 129.764 73.3012C128.547 73.1662 126.983 73.084 125.213 73.1838C123.444 73.084 121.88 73.1662 120.662 73.3012C118.955 73.4875 117.234 73.0708 115.834 72.076C102.94 62.909 81.966 62.6053 65.2609 68.9935L58.9848 69.6141L57.8115 82.9876C57.8115 82.9876 59.8101 83.7476 60.4327 86.2272C63.1581 103.886 70.5723 115.394 84.6518 118.15C86.3082 118.368 87.9323 118.476 89.5285 118.476C105.2 118.476 117.681 107.981 120.671 84.6411C120.671 83.1123 121.914 82.97 123.444 82.97H126.977C128.511 82.97 129.749 83.1138 129.749 84.6411C132.743 107.98 145.225 118.476 160.892 118.476C162.487 118.476 164.112 118.368 165.769 118.15C179.854 115.394 187.264 103.886 189.992 86.2272C190.609 83.7476 192.613 82.9876 192.613 82.9876L191.44 69.6141H191.441ZM88.9484 113.259C76.4417 112.656 67.6795 101.452 67.0319 85.9851C67.0407 85.7327 67.0539 85.4774 67.0671 85.2251C68.8439 70.4269 101.543 67.739 112.568 80.5315C113.937 82.1249 114.78 84.066 115.081 86.1157C113.451 102.155 103.369 113.658 88.9484 113.259ZM161.481 113.259C147.061 113.658 136.978 102.157 135.348 86.1157C135.648 84.066 136.491 82.1249 137.861 80.5315C148.886 67.739 181.585 70.4269 183.362 85.2251C183.375 85.4774 183.389 85.7327 183.397 85.9851C182.75 101.452 173.989 112.654 161.481 113.259Z" fill="#F51B77" stroke="#231F20" stroke-miterlimit="10"/>
<g opacity="0.25">
<path d="M137.861 76.8665C135.901 79.1378 135.023 82.1338 135.258 85.1254C135.284 85.4599 135.314 85.79 135.349 86.1157C135.649 84.0661 136.491 82.125 137.861 80.5316C148.887 67.7391 181.586 70.427 183.363 85.2252C183.376 85.4775 183.389 85.7328 183.398 85.9852C183.458 84.5429 183.446 83.0669 183.363 81.5557C181.586 66.7575 148.887 64.0696 137.861 76.8665Z" fill="white"/>
<path d="M67.0648 81.5557C66.9825 83.0669 66.9693 84.5429 67.0295 85.9852C67.0383 85.7328 67.0515 85.4775 67.0648 85.2252C68.8416 70.427 101.541 67.7391 112.566 80.5316C113.935 82.125 114.777 84.0661 115.079 86.1157C115.114 85.79 115.143 85.4599 115.17 85.1254C115.405 82.1338 114.526 79.1378 112.566 76.8665C101.541 64.0696 68.8416 66.7575 67.0648 81.5557Z" fill="white"/>
<path d="M189.291 71.7944L185.323 71.3367C186.544 77.1306 187.842 82.4727 187.842 82.4727L190.36 81.4765L189.292 71.7944H189.291Z" fill="white"/>
<path d="M59.999 81.4765L62.5174 82.4727C62.5174 82.4727 63.814 77.1306 65.0358 71.3367L61.0681 71.7944L60.0005 81.4765H59.999Z" fill="white"/>
<path d="M128.74 75.097H121.618C121.618 75.097 119.193 75.0207 119.268 75.8541C119.345 76.6875 120.135 79.2609 120.135 79.2609C120.135 79.2609 121.465 78.5802 121.769 78.5802H128.589C128.891 78.5802 130.223 79.2609 130.223 79.2609C130.223 79.2609 131.013 76.6875 131.089 75.8541C131.166 75.0207 128.74 75.097 128.74 75.097Z" fill="white"/>
</g>
<path d="M192.96 82.8981L191.786 69.5232C191.742 69.0243 191.349 68.6267 190.849 68.5768L184.708 67.9694C176.272 64.765 166.688 63.2362 157.704 63.6602C148.052 64.1165 139.61 66.734 133.288 71.2266C132.122 72.057 130.664 72.4267 129.185 72.2639C127.661 72.0952 126.092 72.0526 124.52 72.1392C122.949 72.0541 121.379 72.0966 119.856 72.2639C118.376 72.4267 116.915 72.057 115.746 71.2266C109.426 66.734 100.984 64.118 91.3329 63.6602C82.3475 63.2348 72.7645 64.765 64.3268 67.9694L58.1901 68.5768C57.6909 68.6267 57.2973 69.0243 57.2533 69.5232L56.08 82.8981C56.0403 83.3544 56.3135 83.7873 56.7378 83.9589C56.7995 83.9839 58.2313 84.584 58.7173 86.437C60.1446 95.6481 62.8466 103.034 66.7482 108.391C70.9495 114.158 76.672 117.787 83.7587 119.175C83.7807 119.179 83.8013 119.182 83.8233 119.185C85.5164 119.406 87.2022 119.519 88.8351 119.519C106.455 119.519 118.183 106.856 121.012 84.7747C121.015 84.7585 121.016 84.7424 121.018 84.7248C121.057 84.2367 121.49 83.9981 122.317 84.0088C122.457 84.0103 122.602 84.0132 122.75 84.0132H126.283C127.947 84.0132 127.96 84.1526 128.022 84.7747C130.855 106.856 142.583 119.519 160.199 119.519C161.832 119.519 163.517 119.406 165.21 119.185C165.232 119.182 165.254 119.179 165.275 119.175C172.363 117.787 178.087 114.16 182.288 108.391C186.19 103.034 188.892 95.6481 190.322 86.4356C190.8 84.5942 192.222 83.9897 192.299 83.9589C192.731 83.7902 192.999 83.3588 192.958 82.8967L192.96 82.8981ZM126.285 81.9298H122.752C122.612 81.9298 122.477 81.9283 122.346 81.9269C122.242 81.9269 122.134 81.9239 122.022 81.9239C121.577 81.9239 121.085 81.9489 120.625 82.0882L120.678 81.6437C120.724 81.2681 121.499 80.8074 122.085 80.8074H126.95C127.536 80.8074 128.311 81.2681 128.355 81.6408L128.42 82.1895C127.705 81.9313 126.9 81.9283 126.286 81.9283L126.285 81.9298ZM188.288 85.9763C188.281 86.0071 188.275 86.0379 188.269 86.0688C185.432 104.428 177.791 114.587 164.908 117.123C163.316 117.33 161.732 117.436 160.2 117.436C152.337 117.436 145.749 114.794 140.62 109.582C135.044 103.917 131.504 95.4896 130.098 84.5663L129.734 81.4779C129.587 80.2645 128.148 79.4194 126.947 79.4194H122.082C120.881 79.4194 119.442 80.2645 119.295 81.4808L118.91 84.7424C117.486 95.5953 113.957 103.955 108.418 109.584C103.29 114.795 96.7016 117.437 88.8351 117.437C87.3035 117.437 85.7191 117.332 84.1273 117.125C71.2432 114.587 63.6028 104.429 60.7702 86.0717C60.7658 86.0394 60.7584 86.0086 60.7511 85.9778C60.2548 83.9985 59.0183 82.9157 58.218 82.4022L59.2562 70.5693L64.6704 70.0337C64.7629 70.0249 64.8539 70.0029 64.9406 69.9707C73.1477 66.8323 82.4841 65.3314 91.2346 65.7466C100.486 66.1838 108.543 68.6678 114.537 72.9285C116.125 74.0568 118.094 74.5571 120.085 74.34C121.493 74.1845 123.006 74.1448 124.461 74.227C124.501 74.2299 124.539 74.2299 124.579 74.227C126.034 74.1448 127.548 74.1845 128.956 74.34C130.947 74.5586 132.916 74.0568 134.498 72.9285C140.492 68.6678 148.549 66.1838 157.802 65.7466C166.553 65.3314 175.89 66.8323 184.095 69.9707C184.181 70.0044 184.272 70.0249 184.365 70.0337L189.783 70.5693L190.822 82.4022C190.02 82.9157 188.78 83.9985 188.287 85.9793L188.288 85.9763Z" fill="#282525" stroke="#231F20" stroke-miterlimit="10"/>
<path d="M183.45 83.8636C183.665 76.5276 177.821 72.3475 171.461 70.3228C160.645 66.85 143.139 68.0839 135.81 77.7732C134.321 79.8889 133.64 82.5284 133.735 85.1078L133.79 86.1891C133.79 86.1891 133.791 86.195 133.791 86.1994C133.791 86.1994 133.791 86.2023 133.791 86.2038C134.148 89.593 134.87 92.9587 136.066 96.1734C139.615 106.108 148.291 113.922 159.176 114.117C174.733 114.512 183.163 100.034 183.573 85.9881C183.558 85.6697 183.529 85.3587 183.491 85.052C183.483 84.6529 183.477 84.2465 183.451 83.865L183.45 83.8636ZM136.735 78.3792C142.997 69.7932 157.395 68.191 167.169 70.113C173.034 71.2838 180.231 74.2373 181.833 80.4303C178.739 75.5504 172.106 73.021 166.558 72.082C157.135 70.3888 143.009 72.1055 136.475 80.0841C136.433 80.1354 136.39 80.1868 136.348 80.2381C136.28 80.3218 136.213 80.4054 136.147 80.4905C136 80.6812 135.859 80.8778 135.722 81.0774C135.593 81.2637 135.47 81.4544 135.349 81.6452C135.618 80.4876 136.072 79.3769 136.738 78.3807L136.735 78.3792ZM168.505 110.333C159.727 114.804 148.386 111.695 142.31 104.143C138.129 99.3132 135.835 92.3205 135.113 86.4121C135.139 86.3505 135.16 86.2845 135.167 86.2155C135.672 81.1757 140.023 77.76 144.329 75.7118C151.034 72.6659 158.731 71.9338 166 73.1736C167.344 73.4201 168.673 73.7326 169.974 74.1287C175.426 75.8468 181.693 79.6835 181.834 85.9822C181.425 95.5175 177.37 105.822 168.505 110.333Z" fill="#282525" stroke="#231F20" stroke-miterlimit="10"/>
<path d="M73.5809 71.9631C69.7395 73.8763 66.3121 77.2993 65.8187 81.7523C65.7483 82.6267 65.7057 83.4953 65.6748 84.3683C65.5706 84.8877 65.4986 85.4276 65.4648 85.9881C65.8569 100.182 74.1419 114.519 89.8616 114.122C100.687 113.835 109.251 105.968 112.668 96.0604C113.818 92.8619 114.496 89.5196 114.812 86.1582C114.808 86.1216 114.8 86.0849 114.796 86.0482C114.81 85.7577 114.841 85.1151 114.841 85.1151C114.982 81.8241 113.784 78.476 111.446 76.1417C102.641 67.2813 84.3476 66.533 73.5809 71.9631ZM113.476 86.44C112.169 99.4026 103.894 111.993 89.8058 112.381C75.3901 112.835 67.5412 98.9302 67.205 85.9822C67.6191 78.363 76.2403 74.9342 82.7793 73.7927C89.9864 72.6028 97.6928 73.1868 104.396 76.1842C107.614 77.7057 110.738 79.795 112.467 82.9539C112.589 83.1872 112.699 83.4263 112.802 83.6684C113.111 84.468 113.323 85.3161 113.411 86.2155C113.421 86.3006 113.445 86.3739 113.476 86.44ZM111.211 79.0952C103.937 72.0805 92.0055 70.6632 82.4004 72.2551C77.6691 73.1002 72.2916 74.9606 68.901 78.5479C68.2872 79.1538 67.7351 79.8126 67.2637 80.5271C67.274 80.4861 67.2813 80.4435 67.2931 80.4024C68.1756 76.9648 70.9157 74.4456 74.0273 72.7906C83.9996 67.5865 100.393 68.1587 109.207 75.4727C111.222 77.088 112.655 79.2228 113.241 81.6451C112.684 80.7105 112.003 79.8478 111.213 79.0966L111.211 79.0952Z" fill="#282525" stroke="#231F20" stroke-miterlimit="10"/>
</g>
<defs>
<clipPath id="clip0_163_5661">
<rect width="222" height="245" fill="white"/>
</clipPath>
</defs>
</svg>
